<svg width="100" height="100" viewBox="0 0 100 100" fill="none" xmlns="http://www.w3.org/2000/svg">
<mask id="mask0_1053_14336" style="mask-type:alpha" maskUnits="userSpaceOnUse" x="0" y="45" width="68" height="53">
<path d="M67.9167 74.9795L27.4167 45.4795L0 56.4999C11.9399 80.7508 22.2008 90.0467 49 97.4999L67.9167 74.9795Z" fill="#D9D9D9"/>
</mask>
<g mask="url(#mask0_1053_14336)">
<path d="M26.0949 83.4703L32.1949 65.0703L-26.502 104L-12.502 111L26.0949 83.4703Z" fill="#FFCC01"/>
<path d="M41.9981 49L33.9981 40L-17.002 64.5L-10.502 79.5L41.9981 49Z" fill="#FFCC01"/>
<path d="M72.9984 68L64.4984 63L4.58203 115.417L32.082 113.75L72.9984 68Z" fill="#FFCC01"/>
</g>
<path d="M99.9997 29.783H68.6751L58.9989 0L49.3227 29.783H17.998L43.353 48.217L33.6768 78L59.0317 59.5988L84.3866 78L74.6776 48.217L99.9997 29.783ZM58.9989 50.4474L47.7155 58.6476L52.0123 45.3961L40.7289 37.196H54.6692L58.9989 23.9445L63.2958 37.196H77.2361L65.9526 45.3961L70.2495 58.6476L58.9989 50.4474Z" fill="#FFCC01"/>
</svg>
